<svg width="132" height="16" viewBox="0 0 132 16" fill="none" xmlns="http://www.w3.org/2000/svg">
<path d="M0.981187 10.5756V8.99163H2.83719V10.0156L3.46119 10.6236H6.50119L7.12519 10.0156V7.98363L6.53319 7.39163H3.33319V5.79163H6.53319L7.12519 5.19963V3.23163L6.50119 2.62363H3.55719L2.93319 3.23163V4.25563H1.07719V2.67163L2.72519 1.02363H7.33319L8.98119 2.67163V5.74363L8.11719 6.59163L8.98119 7.45563V10.5756L7.33319 12.2236H2.62919L0.981187 10.5756ZM10.5608 9.87163L16.3528 4.46363V3.23163L15.7288 2.62363H12.9768L12.3528 3.23163V4.27163H10.4968V2.67163L12.1448 1.02363H16.5608L18.2088 2.67163V5.00763L12.4648 10.3036V10.6396H18.2728V12.2236H10.5608V9.87163ZM19.9593 0.799632H21.7673V7.31163H23.3193L25.4473 4.25563H27.4473L24.7753 8.09563L27.6073 12.2236H25.6073L23.2873 8.84763H21.7673V12.2236H19.9593V0.799632ZM35.9391 8.76763H33.1071V11.3916H31.3151V8.76763H28.4831V7.23163H31.3151V4.60763H33.1071V7.23163H35.9391V8.76763Z" fill="white"/>
<path d="M41.7949 1.02363H42.7229V6.22363H48.8029V1.02363H49.7309V12.2236H48.8029V7.05563H42.7229V12.2236H41.7949V1.02363ZM52.1312 10.9916V8.89563L53.3632 7.69563H57.6832V5.91963L56.8032 5.03963H53.9872L53.0912 5.91963V6.63963H52.1952V5.64763L53.5872 4.25563H57.1872L58.5792 5.64763V12.2236H57.6992V10.6716L56.0992 12.2236H53.3632L52.1312 10.9916ZM55.8912 11.4236L57.6832 9.66363V8.49563H53.7312L53.0272 9.16763V10.7356L53.7312 11.4236H55.8912ZM61.0587 4.25563H61.9387V5.79163L63.4747 4.25563H66.4187L67.8107 5.64763V10.8316L66.4187 12.2236H63.3627L61.9547 10.9756V15.6156H61.0587V4.25563ZM66.0347 11.4076L66.9147 10.5436V5.93563L66.0347 5.05563H63.7467L61.9547 6.84763V9.93563L63.5707 11.4076H66.0347ZM70.2149 4.25563H71.0949V5.79163L72.6309 4.25563H75.5749L76.9669 5.64763V10.8316L75.5749 12.2236H72.5189L71.1109 10.9756V15.6156H70.2149V4.25563ZM75.1909 11.4076L76.0709 10.5436V5.93563L75.1909 5.05563H72.9029L71.1109 6.84763V9.93563L72.7269 11.4076H75.1909ZM85.7872 4.25563V14.3196L84.3952 15.6956H80.6672L79.5312 14.5756V13.6636H80.4272V14.2876L81.0512 14.8956H84.0112L84.8912 14.0316V10.3356L83.0032 12.2236H80.6832L79.2912 10.8316V4.25563H80.1872V10.5436L81.0672 11.4076H82.7472L84.8912 9.24763V4.25563H85.7872ZM92.0412 10.5436V2.70363L93.7212 1.02363H98.3932L100.009 2.63963V3.48763H99.0812V2.92763L97.9932 1.85563H94.1372L92.9692 3.00763V10.2236L94.1372 11.3916H97.9932L99.0812 10.3196V9.75963H100.009V10.6076L98.3932 12.2236H93.7212L92.0412 10.5436ZM102.17 0.799632H103.066V12.2236H102.17V0.799632ZM105.619 2.38363V1.77563L106.019 1.37563H106.595L106.995 1.77563V2.38363L106.595 2.78363H106.019L105.619 2.38363ZM105.859 4.25563H106.755V12.2236H105.859V4.25563ZM109.321 10.8316V5.64763L110.713 4.25563H114.601L116.009 5.64763V8.47963H110.217V10.5276L111.113 11.4076H114.201L115.097 10.5436V9.83963H115.993V10.8156L114.585 12.2236H110.713L109.321 10.8316ZM115.113 7.69563V5.93563L114.233 5.05563H111.097L110.217 5.93563V7.69563H115.113ZM118.324 4.25563H119.204V6.11163L121.06 4.25563H123.412L124.804 5.64763V12.2236H123.908V5.93563L123.028 5.07163H121.332L119.22 7.16763V12.2236H118.324V4.25563ZM127.841 10.8316V5.03963H126.401V4.25563H127.873V1.66363H128.737V4.25563H131.233V5.05563H128.737V10.5436L129.617 11.4236H131.233V12.2236H129.233L127.841 10.8316Z" fill="#D1D1D1"/>
</svg>
